<svg xmlns="http://www.w3.org/2000/svg" width="63" height="29" viewBox="0 0 63 29">
    <g fill="none" fill-rule="evenodd" stroke="#4D545C" stroke-linecap="round" stroke-width="2">
        <path d="M38.277 7.139A6.138 6.138 0 1 1 26 7.136a6.138 6.138 0 0 1 12.277.003zM22 27.725v-5.443A8.28 8.28 0 0 1 30.279 14h3.276a8.279 8.279 0 0 1 8.279 8.282v5.443M55.277 7.139A6.138 6.138 0 1 1 43 7.136a6.138 6.138 0 0 1 12.277.003zM42 27.725v-5.443A8.28 8.28 0 0 1 50.279 14h3.276a8.279 8.279 0 0 1 8.279 8.282v5.443M20.277 7.139A6.138 6.138 0 1 1 8 7.136a6.138 6.138 0 0 1 12.277.003z"/>
        <path d="M1.5 27.25v-5.443a8.28 8.28 0 0 1 8.279-8.282h3.276a8.279 8.279 0 0 1 8.279 8.282v5.443"/>
    </g>
</svg>
